<?xml version="1.0" encoding="UTF-8" standalone="no"?>
<svg width="32" height="32" viewBox="0 0 32 32" fill="none" xmlns="http://www.w3.org/2000/svg">
  <!-- Background circle -->
  <circle cx="16" cy="16" r="16" fill="#3B82F6"/>
  
  <!-- Dollar sign -->
  <path d="M17.2 9.6c-.8-.2-1.6-.3-2.4-.3v-2h-1.6v2.1c-1.4.3-2.5.9-3.2 1.8-.7.9-1.1 2-1.1 3.2 0 1.1.3 2 .8 2.7.5.7 1.2 1.2 2 1.6.8.4 1.7.7 2.7 1v5.6c-1.1-.2-2-.6-2.7-1.2-.7-.6-1.2-1.4-1.5-2.4l-2 .8c.4 1.4 1.1 2.5 2.1 3.3 1 .8 2.3 1.3 3.8 1.5v2h1.6v-2c1.5-.2 2.7-.7 3.6-1.6.9-.9 1.3-2.1 1.3-3.6 0-1.1-.3-2-.8-2.7-.5-.7-1.2-1.3-2-1.7-.8-.4-1.7-.7-2.7-1v-5.1c.9.2 1.7.5 2.3 1 .6.5 1.1 1.2 1.4 2.1l2-.8c-.4-1.2-1-2.2-1.9-2.9-.8-.7-1.9-1.1-3.1-1.3V9.6zm-4 7.2c-.6-.3-1.1-.7-1.4-1.2-.3-.5-.5-1.1-.5-1.8 0-.9.3-1.6.8-2.2.5-.6 1.3-1 2.3-1.2v6.9c-.4-.1-.8-.3-1.2-.5zm5.6 5.6c-.6.6-1.3 1-2.3 1.1v-7c.4.1.8.3 1.2.5.6.3 1.1.7 1.4 1.2.3.5.5 1.1.5 1.8 0 1-.3 1.8-.8 2.4z" fill="white"/>
  
  <!-- Downward trend line -->
  <path d="M24 12l-4 8-4-6-4 6" stroke="#EF4444" stroke-width="2" stroke-linecap="round" stroke-linejoin="round"/>
</svg>
